<svg width="180" height="36" viewBox="0 0 1894 376" fill="none" xmlns="http://www.w3.org/2000/svg">
<path d="M503.88 271.5H471.659V74.8711H503.88V157.075H553.863V74.8711H586.084V271.5H553.863V186.267H503.88V271.5Z" fill="#4793EF"/>
<path d="M671.622 271.5H639.126V223.582L594.788 74.8711H627.973L642.844 124.028L651.794 186.955H659.367L668.042 124.028L682.913 74.8711H716.098L671.622 223.582V271.5Z" fill="#4793EF"/>
<path d="M778.09 74.8711C798.01 74.8711 812.422 78.3594 821.326 85.3359C830.23 92.3125 835.096 103.833 835.922 119.897C836.564 127.517 836.886 134.539 836.886 140.965C836.886 147.299 836.564 154.138 835.922 161.481C835.096 177.454 830.185 188.929 821.188 195.905C812.284 202.882 797.78 206.37 777.677 206.37H757.022V271.5H724.802V74.8711H778.09ZM757.022 177.179H777.677C786.581 177.179 793.007 175.985 796.954 173.599C800.993 171.212 803.196 167.769 803.563 163.271C804.206 156.479 804.527 148.951 804.527 140.689C804.527 132.336 804.206 124.809 803.563 118.107C803.196 113.518 801.039 110.029 797.092 107.643C793.145 105.256 786.81 104.063 778.09 104.062H757.022V177.179Z" fill="#4793EF"/>
<path d="M946.006 271.5H849.757V74.8711H946.006V104.062H881.977V157.075H942.288V186.267H881.977V242.309H946.006V271.5Z" fill="#4793EF"/>
<path d="M1014.03 74.8711C1033.76 74.8711 1048.04 78.3594 1056.85 85.3359C1065.75 92.3125 1070.57 103.833 1071.31 119.897C1071.95 127.517 1072.23 134.034 1072.13 139.45C1072.13 144.866 1071.86 151.246 1071.31 158.59C1070.85 168.779 1068.51 177.087 1064.29 183.513C1060.06 189.847 1053.59 194.666 1044.87 197.971L1076.95 271.5H1042.53L1014.17 203.479H993.511V271.5H961.29V74.8711H1014.03ZM993.511 174.287H1013.61C1022.33 174.287 1028.67 173.094 1032.62 170.707C1036.56 168.32 1038.72 164.878 1039.09 160.38C1040.28 146.243 1040.28 132.152 1039.09 118.107C1038.72 113.518 1036.56 110.029 1032.62 107.643C1028.67 105.256 1022.47 104.062 1014.03 104.062H993.511V174.287Z" fill="#4793EF"/>
<path d="M1124.5 271.5H1092.27V74.8711H1143.36L1156.58 150.466L1158.09 242.171H1163.19L1164.56 150.466L1177.92 74.8711H1228.87V271.5H1196.51V211.603L1202.84 104.062H1197.47L1190.31 213.668L1177.51 271.225H1143.77L1131.1 213.668L1123.53 104.062H1118.57L1124.5 211.603V271.5Z" fill="#4793EF"/>
<path d="M1346.67 271.5H1250.42V74.8711H1346.67V104.062H1282.64V157.075H1342.95V186.267H1282.64V242.309H1346.67V271.5Z" fill="#4793EF"/>
<path d="M1398.17 271.5H1365.95V74.8711H1417.04L1430.26 150.466L1431.77 242.171H1436.87L1438.24 150.466L1451.6 74.8711H1502.55V271.5H1470.19V211.603L1476.52 104.062H1471.15L1463.99 213.668L1451.19 271.225H1417.45L1404.78 213.668L1397.21 104.062H1392.25L1398.17 211.603V271.5Z" fill="#4793EF"/>
<path d="M1579.66 72.5303C1600.04 72.5303 1614.63 76.1104 1623.44 83.2705C1632.35 90.4307 1637.03 102.227 1637.49 118.658C1638.13 136.283 1638.45 154.505 1638.45 173.323C1638.45 192.05 1638.13 210.134 1637.49 227.575C1637.03 244.099 1632.35 255.94 1623.44 263.101C1614.63 270.169 1600.04 273.703 1579.66 273.703C1559.37 273.703 1544.77 270.169 1535.87 263.101C1526.97 255.94 1522.28 244.099 1521.83 227.575C1521.18 210.134 1520.86 192.004 1520.86 173.186C1520.86 154.275 1521.18 136.1 1521.83 118.658C1522.28 102.227 1526.97 90.4307 1535.87 83.2705C1544.77 76.1104 1559.37 72.5303 1579.66 72.5303ZM1579.66 99.5186C1570.94 99.5186 1564.56 100.62 1560.52 102.823C1556.48 104.935 1554.32 108.147 1554.05 112.462C1553.31 124.396 1552.85 137.477 1552.67 151.705C1552.49 165.934 1552.53 180.162 1552.81 194.391C1553.08 208.527 1553.5 221.654 1554.05 233.771C1554.32 237.994 1556.48 241.207 1560.52 243.41C1564.56 245.613 1570.94 246.715 1579.66 246.715C1588.65 246.715 1595.13 245.613 1599.07 243.41C1603.02 241.207 1605.08 237.994 1605.27 233.771C1606 221.654 1606.46 208.527 1606.65 194.391C1606.83 180.162 1606.78 165.934 1606.51 151.705C1606.32 137.477 1605.91 124.396 1605.27 112.462C1605.08 108.148 1602.97 104.935 1598.93 102.823C1594.9 100.62 1588.47 99.5186 1579.66 99.5186Z" fill="#4793EF"/>
<path d="M1709.5 74.8711C1729.24 74.8711 1743.51 78.3594 1752.33 85.3359C1761.23 92.3125 1766.05 103.833 1766.79 119.897C1767.43 127.517 1767.7 134.034 1767.61 139.45C1767.61 144.866 1767.34 151.246 1766.79 158.59C1766.33 168.779 1763.99 177.087 1759.76 183.513C1755.54 189.847 1749.07 194.666 1740.35 197.971L1772.43 271.5H1738.01L1709.64 203.479H1688.99V271.5H1656.77V74.8711H1709.5ZM1688.99 174.287H1709.09C1717.81 174.287 1724.15 173.094 1728.09 170.707C1732.04 168.32 1734.2 164.878 1734.56 160.38C1735.76 146.243 1735.76 132.152 1734.56 118.107C1734.2 113.518 1732.04 110.029 1728.09 107.643C1724.15 105.256 1717.95 104.062 1709.5 104.062H1688.99V174.287Z" fill="#4793EF"/>
<path d="M1848.6 271.5H1816.1V223.582L1771.76 74.8711H1804.95L1819.82 124.028L1828.77 186.955H1836.34L1845.02 124.028L1859.89 74.8711H1893.07L1848.6 223.582V271.5Z" fill="#4793EF"/>
<g clip-path="url(#clip0_72_921)">
<path d="M219.688 0C310.52 14.2697 380 92.9701 380 187.92C380 282.869 310.52 361.57 219.688 375.839V0Z" fill="#4793EF"/>
<path d="M120.234 20.6401C179.472 52.8504 219.688 115.683 219.688 187.92C219.688 260.156 179.472 322.989 120.234 355.2V20.6401Z" fill="#4793EF"/>
<path d="M60.1172 49.0791C97.116 83.7887 120.234 133.151 120.234 187.92C120.234 242.689 97.116 292.051 60.1172 326.76V49.0791Z" fill="#4793EF"/>
<path d="M20.0391 71.0471C45.154 103.296 60.1172 143.858 60.1172 187.92C60.1172 231.982 45.1542 272.544 20.0391 304.793V71.0471Z" fill="#4793EF"/>
<path d="M1.48656e-05 102.796C12.8217 128.408 20.0391 157.32 20.0391 187.92C20.0391 218.519 12.8218 247.432 0 273.044L1.48656e-05 102.796Z" fill="#4793EF"/>
</g>
<defs>
<clipPath id="clip0_72_921">
<rect width="380" height="376" fill="white"/>
</clipPath>
</defs>
</svg>
