<svg width="1024" height="1024" viewBox="0 0 1024 1024" fill="none" xmlns="http://www.w3.org/2000/svg">
<rect width="1024" height="1024" fill="#2072E6"/>
<g clip-path="url(#clip0_72_925)">
<path d="M567.561 160.576C737.557 187.25 867.591 334.363 867.591 511.85C867.591 689.335 737.557 836.45 567.561 863.123V160.576Z" fill="white"/>
<path d="M381.431 199.158C492.297 259.368 567.561 376.82 567.561 511.85C567.561 646.88 492.297 764.332 381.431 824.542V199.158Z" fill="white"/>
<path d="M268.92 252.318C338.165 317.2 381.432 409.472 381.432 511.85C381.432 614.228 338.165 706.5 268.92 771.381V252.318Z" fill="white"/>
<path d="M193.913 293.383C240.916 353.665 268.92 429.486 268.92 511.85C268.92 594.214 240.917 670.035 193.913 730.317V293.383Z" fill="white"/>
<path d="M156.409 352.73C180.405 400.606 193.913 454.65 193.913 511.85C193.913 569.049 180.406 623.094 156.409 670.97L156.409 352.73Z" fill="white"/>
</g>
<defs>
<clipPath id="clip0_72_925">
<rect width="711.182" height="702.847" fill="white" transform="translate(156.409 160.576)"/>
</clipPath>
</defs>
</svg>
